<?xml version="1.0" encoding="UTF-8"?><svg id="Layer_2" xmlns="http://www.w3.org/2000/svg" viewBox="0 0 393.36 300.74"><g id="Layer_1-2"><g><path d="M260.62,148.19C260.62,66.35,196.68,0,196.68,0c0,0-63.94,66.35-63.94,148.19s63.94,148.19,63.94,148.19c0,0,63.94-66.35,63.94-148.19Z" style="fill:#ff5e00; opacity:.5;"/><path d="M143.55,152.83C89.24,98.52,0,99.7,0,99.7,0,99.7-1.18,188.94,53.13,243.25c54.31,54.31,143.55,53.13,143.55,53.13,0,0,1.18-89.24-53.13-143.55Z" style="fill:#7cf100; opacity:.5;"/><path d="M203.4,143.42c-29.47-70.93-112.4-103.91-112.4-103.91,0,0-35.16,82.03-5.69,152.96,29.46,70.93,112.4,103.9,112.4,103.9,0,0,35.16-82.03,5.7-152.96Z" style="fill:#ffe100; opacity:.5;"/><path d="M249.81,152.83c54.31-54.31,143.55-53.13,143.55-53.13,0,0,1.18,89.24-53.13,143.55-54.31,54.31-143.55,53.13-143.55,53.13,0,0-1.18-89.24,53.13-143.55Z" style="fill:#8407be; opacity:.5;"/><path d="M189.97,143.42c29.47-70.93,112.4-103.91,112.4-103.91,0,0,35.16,82.03,5.7,152.96-29.46,70.93-112.4,103.9-112.4,103.9,0,0-35.16-82.03-5.69-152.96Z" style="fill:#ff007a; opacity:.5;"/><g><path d="M226.52,124.01c-9.78-25.62-25.37-31.63-29.84-58.3-4.47,26.68-20.05,32.68-29.84,58.3-8.43,22.07,12.32,50.72,29.84,50.72s38.27-28.65,29.84-50.72Zm-29.84,33.81c-10.21,0-18.48-10.13-18.48-22.62s8.27-22.61,18.48-22.61,18.48,10.12,18.48,22.61-8.27,22.62-18.48,22.62Z" style="fill:none;"/><path d="M196.68,112.59c-10.21,0-18.48,10.12-18.48,22.61s8.27,22.62,18.48,22.62,18.48-10.13,18.48-22.62-8.27-22.61-18.48-22.61Z" style="fill:#fff;"/><path d="M307.2,236.51c-1.11-26.4-87.86,9.55-87.86,9.55,0-34.26,40.56-89.4,29.68-120.92-11.05-32.01-40.17-51.11-41.28-70.2-1.11-19.09-7.74-34.76-11.05-34.76s-9.95,15.67-11.05,34.76c-1.11,19.1-30.23,38.19-41.28,70.2-10.88,31.52,29.68,86.66,29.68,120.92,0,0-86.75-35.94-87.86-9.55-1.11,26.4,53.05,64.23,110.51,64.23s111.62-37.83,110.51-64.23Zm-110.51-61.78c-17.52,0-38.27-28.65-29.84-50.72,9.79-25.62,25.37-31.63,29.84-58.3,4.47,26.68,20.06,32.68,29.84,58.3,8.43,22.07-12.32,50.72-29.84,50.72Z" style="fill:#fff;"/></g></g></g></svg>