<?xml version="1.0" encoding="UTF-8"?><svg id="Layer_2" xmlns="http://www.w3.org/2000/svg" xmlns:xlink="http://www.w3.org/1999/xlink" viewBox="0 0 94.59 93.29"><defs><radialGradient id="New_Gradient_Swatch_9" cx="44.21" cy="22.67" fx="44.21" fy="22.67" r="4.22" gradientUnits="userSpaceOnUse"><stop offset="0" stop-color="#fff"/><stop offset=".5" stop-color="#e60013"/><stop offset="1" stop-color="#871c21"/></radialGradient><radialGradient id="New_Gradient_Swatch_4" cx="43.65" cy="24.01" fx="43.65" fy="24.01" r="4.02" gradientUnits="userSpaceOnUse"><stop offset="0" stop-color="#fff"/><stop offset=".33" stop-color="#fff"/><stop offset=".66" stop-color="#fff" stop-opacity="0"/><stop offset="1" stop-color="#fff" stop-opacity="0"/></radialGradient><radialGradient id="New_Gradient_Swatch_9-2" cx="33.73" cy="23.25" fx="33.73" fy="23.25" r="15.67" xlink:href="#New_Gradient_Swatch_9"/><radialGradient id="New_Gradient_Swatch_9-3" cx="63.73" cy="30.83" fx="63.73" fy="30.83" r="13.75" xlink:href="#New_Gradient_Swatch_9"/><radialGradient id="New_Gradient_Swatch_9-4" cx="53.42" cy="32.54" fx="53.42" fy="32.54" r="6.63" xlink:href="#New_Gradient_Swatch_9"/><radialGradient id="New_Gradient_Swatch_4-2" cx="58.22" cy="32.64" fx="58.22" fy="32.64" r="12.24" xlink:href="#New_Gradient_Swatch_4"/><radialGradient id="New_Gradient_Swatch_4-3" cx="53.72" cy="34.26" fx="53.72" fy="34.26" r="5.93" xlink:href="#New_Gradient_Swatch_4"/><radialGradient id="New_Gradient_Swatch_9-5" cx="81.73" cy="30.08" fx="81.73" fy="30.08" r="38.77" xlink:href="#New_Gradient_Swatch_9"/><radialGradient id="New_Gradient_Swatch_9-6" cx="37.83" cy="20.18" fx="37.83" fy="20.18" r="12.34" xlink:href="#New_Gradient_Swatch_9"/><radialGradient id="New_Gradient_Swatch_9-7" cx="54.74" cy="15.23" fx="54.74" fy="15.23" r="8.21" xlink:href="#New_Gradient_Swatch_9"/><radialGradient id="New_Gradient_Swatch_4-4" cx="40.92" cy="20.59" fx="40.92" fy="20.59" r="11.76" xlink:href="#New_Gradient_Swatch_4"/><radialGradient id="New_Gradient_Swatch_4-5" cx="51.04" cy="15.24" fx="51.04" fy="15.24" r="12.02" xlink:href="#New_Gradient_Swatch_4"/><radialGradient id="New_Gradient_Swatch_9-8" cx="28.43" cy="-14.97" fx="28.43" fy="-14.97" r="58.98" xlink:href="#New_Gradient_Swatch_9"/><linearGradient id="New_Gradient_Swatch_3" x1="45.39" y1="-23.16" x2="45.39" y2="20.98" gradientUnits="userSpaceOnUse"><stop offset="0" stop-color="#fff"/><stop offset="1" stop-color="#fff" stop-opacity="0"/></linearGradient><radialGradient id="New_Gradient_Swatch_9-9" cx="52.07" cy="19.07" fx="52.07" fy="19.07" r="17.01" xlink:href="#New_Gradient_Swatch_9"/><radialGradient id="New_Gradient_Swatch_9-10" cx="51.62" cy="29.61" fx="51.62" fy="29.61" r="5.05" xlink:href="#New_Gradient_Swatch_9"/><radialGradient id="New_Gradient_Swatch_9-11" cx="72.63" cy="25.82" fx="72.63" fy="25.82" r="6.91" xlink:href="#New_Gradient_Swatch_9"/><radialGradient id="New_Gradient_Swatch_4-6" cx="51.49" cy="24.14" fx="51.49" fy="24.14" r="16.26" xlink:href="#New_Gradient_Swatch_4"/><radialGradient id="New_Gradient_Swatch_4-7" cx="49.43" cy="29.53" fx="49.43" fy="29.53" r="4.4" xlink:href="#New_Gradient_Swatch_4"/><radialGradient id="New_Gradient_Swatch_4-8" cx="70.22" cy="26.2" fx="70.22" fy="26.2" r="5.89" xlink:href="#New_Gradient_Swatch_4"/><radialGradient id="New_Gradient_Swatch_9-12" cx="99.21" cy="-10.55" fx="99.21" fy="-10.55" r="89.57" xlink:href="#New_Gradient_Swatch_9"/><linearGradient id="New_Gradient_Swatch_3-2" x1="83.62" y1="-.81" x2="61.5" y2="27.7" xlink:href="#New_Gradient_Swatch_3"/><radialGradient id="New_Gradient_Swatch_8" cx="-456.25" cy="-574.38" fx="-456.25" fy="-574.38" r="4.22" gradientTransform="translate(707.88 -212.15) rotate(-72)" gradientUnits="userSpaceOnUse"><stop offset="0" stop-color="#fff"/><stop offset=".5" stop-color="#f8b626"/><stop offset="1" stop-color="#c81b23"/></radialGradient><radialGradient id="New_Gradient_Swatch_4-9" cx="-456.81" cy="-573.04" fx="-456.81" fy="-573.04" r="4.02" gradientTransform="translate(707.88 -212.15) rotate(-72)" xlink:href="#New_Gradient_Swatch_4"/><radialGradient id="New_Gradient_Swatch_8-2" cx="-466.72" cy="-573.8" fx="-466.72" fy="-573.8" r="15.67" xlink:href="#New_Gradient_Swatch_8"/><radialGradient id="New_Gradient_Swatch_8-3" cx="-436.72" cy="-566.22" fx="-436.72" fy="-566.22" r="13.75" xlink:href="#New_Gradient_Swatch_8"/><radialGradient id="New_Gradient_Swatch_8-4" cx="-447.03" cy="-564.51" fx="-447.03" fy="-564.51" r="6.63" xlink:href="#New_Gradient_Swatch_8"/><radialGradient id="New_Gradient_Swatch_4-10" cx="-442.24" cy="-564.42" fx="-442.24" fy="-564.42" r="12.24" gradientTransform="translate(707.88 -212.15) rotate(-72)" xlink:href="#New_Gradient_Swatch_4"/><radialGradient id="New_Gradient_Swatch_4-11" cx="-446.74" cy="-562.79" fx="-446.74" fy="-562.79" r="5.93" gradientTransform="translate(707.88 -212.15) rotate(-72)" xlink:href="#New_Gradient_Swatch_4"/><radialGradient id="New_Gradient_Swatch_8-5" cx="-418.72" cy="-566.97" fx="-418.72" fy="-566.97" r="38.77" xlink:href="#New_Gradient_Swatch_8"/><radialGradient id="New_Gradient_Swatch_8-6" cx="-462.62" cy="-576.87" fx="-462.62" fy="-576.87" r="12.34" xlink:href="#New_Gradient_Swatch_8"/><radialGradient id="New_Gradient_Swatch_8-7" cx="-445.71" cy="-581.82" fx="-445.71" fy="-581.82" r="8.21" xlink:href="#New_Gradient_Swatch_8"/><radialGradient id="New_Gradient_Swatch_4-12" cx="-459.54" cy="-576.47" fx="-459.54" fy="-576.47" r="11.76" gradientTransform="translate(707.88 -212.15) rotate(-72)" xlink:href="#New_Gradient_Swatch_4"/><radialGradient id="New_Gradient_Swatch_4-13" cx="-449.41" cy="-581.81" fx="-449.41" fy="-581.81" r="12.02" gradientTransform="translate(707.88 -212.15) rotate(-72)" xlink:href="#New_Gradient_Swatch_4"/><radialGradient id="New_Gradient_Swatch_8-8" cx="-472.02" cy="-612.02" fx="-472.02" fy="-612.02" r="58.98" xlink:href="#New_Gradient_Swatch_8"/><linearGradient id="New_Gradient_Swatch_3-3" x1="-455.07" y1="-620.21" x2="-455.07" y2="-576.07" gradientTransform="translate(707.88 -212.15) rotate(-72)" xlink:href="#New_Gradient_Swatch_3"/><radialGradient id="New_Gradient_Swatch_8-9" cx="-448.39" cy="-577.98" fx="-448.39" fy="-577.98" r="17.01" xlink:href="#New_Gradient_Swatch_8"/><radialGradient id="New_Gradient_Swatch_8-10" cx="-448.84" cy="-567.44" fx="-448.84" fy="-567.44" r="5.05" xlink:href="#New_Gradient_Swatch_8"/><radialGradient id="New_Gradient_Swatch_8-11" cx="-427.82" cy="-571.23" fx="-427.82" fy="-571.23" r="6.91" xlink:href="#New_Gradient_Swatch_8"/><radialGradient id="New_Gradient_Swatch_4-14" cx="-448.96" cy="-572.91" fx="-448.96" fy="-572.91" r="16.26" gradientTransform="translate(707.88 -212.15) rotate(-72)" xlink:href="#New_Gradient_Swatch_4"/><radialGradient id="New_Gradient_Swatch_4-15" cx="-451.02" cy="-567.52" fx="-451.02" fy="-567.52" r="4.4" gradientTransform="translate(707.88 -212.15) rotate(-72)" xlink:href="#New_Gradient_Swatch_4"/><radialGradient id="New_Gradient_Swatch_4-16" cx="-430.23" cy="-570.85" fx="-430.23" fy="-570.85" r="5.89" gradientTransform="translate(707.88 -212.15) rotate(-72)" xlink:href="#New_Gradient_Swatch_4"/><radialGradient id="New_Gradient_Swatch_8-12" cx="-401.25" cy="-607.6" fx="-401.25" fy="-607.6" r="89.56" xlink:href="#New_Gradient_Swatch_8"/><linearGradient id="New_Gradient_Swatch_3-4" x1="-416.83" y1="-597.86" x2="-438.95" y2="-569.35" gradientTransform="translate(707.88 -212.15) rotate(-72)" xlink:href="#New_Gradient_Swatch_3"/><radialGradient id="New_Gradient_Swatch_6" cx="-277.4" cy="-1320.48" fx="-277.4" fy="-1320.48" r="4.22" gradientTransform="translate(585.65 -1157.89) rotate(-144)" gradientUnits="userSpaceOnUse"><stop offset="0" stop-color="#fff"/><stop offset=".28" stop-color="#e5e500"/><stop offset=".8" stop-color="#17953b"/></radialGradient><radialGradient id="New_Gradient_Swatch_4-17" cx="-277.96" cy="-1319.14" fx="-277.96" fy="-1319.14" r="4.02" gradientTransform="translate(585.65 -1157.89) rotate(-144)" xlink:href="#New_Gradient_Swatch_4"/><radialGradient id="New_Gradient_Swatch_6-2" cx="-287.88" cy="-1319.9" fx="-287.88" fy="-1319.9" r="15.67" xlink:href="#New_Gradient_Swatch_6"/><radialGradient id="New_Gradient_Swatch_6-3" cx="-257.88" cy="-1312.32" fx="-257.88" fy="-1312.32" r="13.75" xlink:href="#New_Gradient_Swatch_6"/><radialGradient id="New_Gradient_Swatch_6-4" cx="-268.19" cy="-1310.61" fx="-268.19" fy="-1310.61" r="6.63" xlink:href="#New_Gradient_Swatch_6"/><radialGradient id="New_Gradient_Swatch_4-18" cx="-263.39" cy="-1310.52" fx="-263.39" fy="-1310.52" r="12.24" gradientTransform="translate(585.65 -1157.89) rotate(-144)" xlink:href="#New_Gradient_Swatch_4"/><radialGradient id="New_Gradient_Swatch_4-19" cx="-267.89" cy="-1308.89" fx="-267.89" fy="-1308.89" r="5.93" gradientTransform="translate(585.65 -1157.89) rotate(-144)" xlink:href="#New_Gradient_Swatch_4"/><radialGradient id="New_Gradient_Swatch_6-5" cx="-239.88" cy="-1313.08" fx="-239.88" fy="-1313.08" r="38.77" xlink:href="#New_Gradient_Swatch_6"/><radialGradient id="New_Gradient_Swatch_6-6" cx="-283.78" cy="-1322.97" fx="-283.78" fy="-1322.97" r="12.34" xlink:href="#New_Gradient_Swatch_6"/><radialGradient id="New_Gradient_Swatch_6-7" cx="-266.87" cy="-1327.93" fx="-266.87" fy="-1327.93" r="8.21" xlink:href="#New_Gradient_Swatch_6"/><radialGradient id="New_Gradient_Swatch_4-20" cx="-280.69" cy="-1322.57" fx="-280.69" fy="-1322.57" r="11.76" gradientTransform="translate(585.65 -1157.89) rotate(-144)" xlink:href="#New_Gradient_Swatch_4"/><radialGradient id="New_Gradient_Swatch_4-21" cx="-270.57" cy="-1327.91" fx="-270.57" fy="-1327.91" r="12.02" gradientTransform="translate(585.65 -1157.89) rotate(-144)" xlink:href="#New_Gradient_Swatch_4"/><radialGradient id="New_Gradient_Swatch_6-8" cx="-293.17" cy="-1358.13" fx="-293.17" fy="-1358.13" r="58.98" xlink:href="#New_Gradient_Swatch_6"/><linearGradient id="New_Gradient_Swatch_3-5" x1="-276.22" y1="-1366.32" x2="-276.22" y2="-1322.17" gradientTransform="translate(585.65 -1157.89) rotate(-144)" xlink:href="#New_Gradient_Swatch_3"/><radialGradient id="New_Gradient_Swatch_6-9" cx="-269.54" cy="-1324.08" fx="-269.54" fy="-1324.08" r="17.01" xlink:href="#New_Gradient_Swatch_6"/><radialGradient id="New_Gradient_Swatch_6-10" cx="-269.99" cy="-1313.54" fx="-269.99" fy="-1313.54" r="5.05" xlink:href="#New_Gradient_Swatch_6"/><radialGradient id="New_Gradient_Swatch_6-11" cx="-248.97" cy="-1317.34" fx="-248.97" fy="-1317.34" r="6.91" xlink:href="#New_Gradient_Swatch_6"/><radialGradient id="New_Gradient_Swatch_4-22" cx="-270.12" cy="-1319.01" fx="-270.12" fy="-1319.01" r="16.26" gradientTransform="translate(585.65 -1157.89) rotate(-144)" xlink:href="#New_Gradient_Swatch_4"/><radialGradient id="New_Gradient_Swatch_4-23" cx="-272.18" cy="-1313.62" fx="-272.18" fy="-1313.62" r="4.4" gradientTransform="translate(585.65 -1157.89) rotate(-144)" xlink:href="#New_Gradient_Swatch_4"/><radialGradient id="New_Gradient_Swatch_4-24" cx="-251.39" cy="-1316.95" fx="-251.39" fy="-1316.95" r="5.89" gradientTransform="translate(585.65 -1157.89) rotate(-144)" xlink:href="#New_Gradient_Swatch_4"/><radialGradient id="New_Gradient_Swatch_6-12" cx="-222.4" cy="-1353.71" fx="-222.4" fy="-1353.71" r="89.57" xlink:href="#New_Gradient_Swatch_6"/><linearGradient id="New_Gradient_Swatch_3-6" x1="-237.99" y1="-1343.96" x2="-260.1" y2="-1315.46" gradientTransform="translate(585.65 -1157.89) rotate(-144)" xlink:href="#New_Gradient_Swatch_3"/><radialGradient id="New_Gradient_Swatch_7" cx="467.1" cy="-1163.89" fx="467.1" fy="-1163.89" r="4.22" gradientTransform="translate(-240.56 -1146.35) rotate(144)" gradientUnits="userSpaceOnUse"><stop offset="0" stop-color="#fff"/><stop offset=".5" stop-color="#31b1e7"/><stop offset="1" stop-color="#323390"/></radialGradient><radialGradient id="New_Gradient_Swatch_4-25" cx="466.54" cy="-1162.55" fx="466.54" fy="-1162.55" r="4.02" gradientTransform="translate(-240.56 -1146.35) rotate(144)" xlink:href="#New_Gradient_Swatch_4"/><radialGradient id="New_Gradient_Swatch_7-2" cx="456.62" cy="-1163.31" fx="456.62" fy="-1163.31" r="15.67" xlink:href="#New_Gradient_Swatch_7"/><radialGradient id="New_Gradient_Swatch_7-3" cx="486.62" cy="-1155.73" fx="486.62" fy="-1155.73" r="13.75" xlink:href="#New_Gradient_Swatch_7"/><radialGradient id="New_Gradient_Swatch_7-4" cx="476.31" cy="-1154.02" fx="476.31" fy="-1154.02" r="6.63" xlink:href="#New_Gradient_Swatch_7"/><radialGradient id="New_Gradient_Swatch_4-26" cx="481.11" cy="-1153.93" fx="481.11" fy="-1153.93" r="12.24" gradientTransform="translate(-240.56 -1146.35) rotate(144)" xlink:href="#New_Gradient_Swatch_4"/><radialGradient id="New_Gradient_Swatch_4-27" cx="476.61" cy="-1152.3" fx="476.61" fy="-1152.3" r="5.93" gradientTransform="translate(-240.56 -1146.35) rotate(144)" xlink:href="#New_Gradient_Swatch_4"/><radialGradient id="New_Gradient_Swatch_7-5" cx="504.62" cy="-1156.48" fx="504.62" fy="-1156.48" r="38.77" xlink:href="#New_Gradient_Swatch_7"/><radialGradient id="New_Gradient_Swatch_7-6" cx="460.72" cy="-1166.38" fx="460.72" fy="-1166.38" r="12.34" xlink:href="#New_Gradient_Swatch_7"/><radialGradient id="New_Gradient_Swatch_7-7" cx="477.63" cy="-1171.33" fx="477.63" fy="-1171.33" r="8.21" xlink:href="#New_Gradient_Swatch_7"/><radialGradient id="New_Gradient_Swatch_4-28" cx="463.81" cy="-1165.98" fx="463.81" fy="-1165.98" r="11.76" gradientTransform="translate(-240.56 -1146.35) rotate(144)" xlink:href="#New_Gradient_Swatch_4"/><radialGradient id="New_Gradient_Swatch_4-29" cx="473.93" cy="-1171.32" fx="473.93" fy="-1171.32" r="12.02" gradientTransform="translate(-240.56 -1146.35) rotate(144)" xlink:href="#New_Gradient_Swatch_4"/><radialGradient id="New_Gradient_Swatch_7-8" cx="451.33" cy="-1201.54" fx="451.33" fy="-1201.54" r="58.98" xlink:href="#New_Gradient_Swatch_7"/><linearGradient id="New_Gradient_Swatch_3-7" x1="468.28" y1="-1209.73" x2="468.28" y2="-1165.58" gradientTransform="translate(-240.56 -1146.35) rotate(144)" xlink:href="#New_Gradient_Swatch_3"/><radialGradient id="New_Gradient_Swatch_7-9" cx="474.96" cy="-1167.49" fx="474.96" fy="-1167.49" r="17.01" xlink:href="#New_Gradient_Swatch_7"/><radialGradient id="New_Gradient_Swatch_7-10" cx="474.51" cy="-1156.95" fx="474.51" fy="-1156.95" r="5.06" xlink:href="#New_Gradient_Swatch_7"/><radialGradient id="New_Gradient_Swatch_7-11" cx="495.53" cy="-1160.74" fx="495.53" fy="-1160.74" r="6.91" xlink:href="#New_Gradient_Swatch_7"/><radialGradient id="New_Gradient_Swatch_4-30" cx="474.38" cy="-1162.42" fx="474.38" fy="-1162.42" r="16.26" gradientTransform="translate(-240.56 -1146.35) rotate(144)" xlink:href="#New_Gradient_Swatch_4"/><radialGradient id="New_Gradient_Swatch_4-31" cx="472.32" cy="-1157.03" fx="472.32" fy="-1157.03" r="4.4" gradientTransform="translate(-240.56 -1146.35) rotate(144)" xlink:href="#New_Gradient_Swatch_4"/><radialGradient id="New_Gradient_Swatch_4-32" cx="493.11" cy="-1160.36" fx="493.11" fy="-1160.36" r="5.89" gradientTransform="translate(-240.56 -1146.35) rotate(144)" xlink:href="#New_Gradient_Swatch_4"/><radialGradient id="New_Gradient_Swatch_7-12" cx="522.1" cy="-1197.11" fx="522.1" fy="-1197.11" r="89.56" xlink:href="#New_Gradient_Swatch_7"/><linearGradient id="New_Gradient_Swatch_3-8" x1="506.51" y1="-1187.37" x2="484.4" y2="-1158.87" gradientTransform="translate(-240.56 -1146.35) rotate(144)" xlink:href="#New_Gradient_Swatch_3"/><radialGradient id="New_Gradient_Swatch_10" cx="513.72" cy="-402.06" fx="513.72" fy="-402.06" r="4.22" gradientTransform="translate(-469.06 -325.93) rotate(72)" gradientUnits="userSpaceOnUse"><stop offset="0" stop-color="#fff"/><stop offset=".5" stop-color="#d54191"/><stop offset="1" stop-color="#62338f"/></radialGradient><radialGradient id="New_Gradient_Swatch_4-33" cx="513.16" cy="-400.72" fx="513.16" fy="-400.72" r="4.02" gradientTransform="translate(-469.06 -325.93) rotate(72)" xlink:href="#New_Gradient_Swatch_4"/><radialGradient id="New_Gradient_Swatch_10-2" cx="503.24" cy="-401.48" fx="503.24" fy="-401.48" r="15.67" xlink:href="#New_Gradient_Swatch_10"/><radialGradient id="New_Gradient_Swatch_10-3" cx="533.24" cy="-393.9" fx="533.24" fy="-393.9" r="13.75" xlink:href="#New_Gradient_Swatch_10"/><radialGradient id="New_Gradient_Swatch_10-4" cx="522.93" cy="-392.19" fx="522.93" fy="-392.19" r="6.63" xlink:href="#New_Gradient_Swatch_10"/><radialGradient id="New_Gradient_Swatch_4-34" cx="527.73" cy="-392.1" fx="527.73" fy="-392.1" r="12.24" gradientTransform="translate(-469.06 -325.93) rotate(72)" xlink:href="#New_Gradient_Swatch_4"/><radialGradient id="New_Gradient_Swatch_4-35" cx="523.23" cy="-390.47" fx="523.23" fy="-390.47" r="5.93" gradientTransform="translate(-469.06 -325.93) rotate(72)" xlink:href="#New_Gradient_Swatch_4"/><radialGradient id="New_Gradient_Swatch_10-5" cx="551.24" cy="-394.65" fx="551.24" fy="-394.65" r="38.77" xlink:href="#New_Gradient_Swatch_10"/><radialGradient id="New_Gradient_Swatch_10-6" cx="507.34" cy="-404.55" fx="507.34" fy="-404.55" r="12.34" xlink:href="#New_Gradient_Swatch_10"/><radialGradient id="New_Gradient_Swatch_10-7" cx="524.25" cy="-409.5" fx="524.25" fy="-409.5" r="8.21" xlink:href="#New_Gradient_Swatch_10"/><radialGradient id="New_Gradient_Swatch_4-36" cx="510.43" cy="-404.14" fx="510.43" fy="-404.14" r="11.76" gradientTransform="translate(-469.06 -325.93) rotate(72)" xlink:href="#New_Gradient_Swatch_4"/><radialGradient id="New_Gradient_Swatch_4-37" cx="520.55" cy="-409.49" fx="520.55" fy="-409.49" r="12.02" gradientTransform="translate(-469.06 -325.93) rotate(72)" xlink:href="#New_Gradient_Swatch_4"/><radialGradient id="New_Gradient_Swatch_10-8" cx="497.95" cy="-439.7" fx="497.95" fy="-439.7" r="58.98" xlink:href="#New_Gradient_Swatch_10"/><linearGradient id="New_Gradient_Swatch_3-9" x1="514.9" y1="-447.89" x2="514.9" y2="-403.75" gradientTransform="translate(-469.06 -325.93) rotate(72)" xlink:href="#New_Gradient_Swatch_3"/><radialGradient id="New_Gradient_Swatch_10-9" cx="521.58" cy="-405.66" fx="521.58" fy="-405.66" r="17.01" xlink:href="#New_Gradient_Swatch_10"/><radialGradient id="New_Gradient_Swatch_10-10" cx="521.13" cy="-395.12" fx="521.13" fy="-395.12" r="5.06" xlink:href="#New_Gradient_Swatch_10"/><radialGradient id="New_Gradient_Swatch_10-11" cx="542.14" cy="-398.91" fx="542.14" fy="-398.91" r="6.91" xlink:href="#New_Gradient_Swatch_10"/><radialGradient id="New_Gradient_Swatch_4-38" cx="521" cy="-400.59" fx="521" fy="-400.59" r="16.26" gradientTransform="translate(-469.06 -325.93) rotate(72)" xlink:href="#New_Gradient_Swatch_4"/><radialGradient id="New_Gradient_Swatch_4-39" cx="518.94" cy="-395.2" fx="518.94" fy="-395.2" r="4.4" gradientTransform="translate(-469.06 -325.93) rotate(72)" xlink:href="#New_Gradient_Swatch_4"/><radialGradient id="New_Gradient_Swatch_4-40" cx="539.73" cy="-398.53" fx="539.73" fy="-398.53" r="5.89" gradientTransform="translate(-469.06 -325.93) rotate(72)" xlink:href="#New_Gradient_Swatch_4"/><radialGradient id="New_Gradient_Swatch_10-12" cx="568.71" cy="-435.28" fx="568.71" fy="-435.28" r="89.56" xlink:href="#New_Gradient_Swatch_10"/><linearGradient id="New_Gradient_Swatch_3-10" x1="553.13" y1="-425.54" x2="531.02" y2="-397.03" gradientTransform="translate(-469.06 -325.93) rotate(72)" xlink:href="#New_Gradient_Swatch_3"/></defs><g id="Layer_1-2"><g><g><g><path d="M40.64,23.86c1.71,.58,3.32,1.26,4.73,2.07,.27-.33,.56-.64,.87-.92-1.52-.87-3.27-1.55-5.13-2.09-.16,.32-.31,.63-.47,.95Z" style="fill:url(#New_Gradient_Swatch_9); fill-rule:evenodd;"/><path d="M41.05,23.04c1.79,.58,3.54,1.25,5.08,2.07,.04-.03,.07-.07,.11-.1-1.52-.87-3.27-1.55-5.13-2.09l-.06,.12Z" style="fill:url(#New_Gradient_Swatch_4); fill-rule:evenodd;"/><path d="M41.11,22.91c1.85,.54,3.61,1.22,5.13,2.09,.33-.31,.68-.6,1.05-.85-1.53-1.06-3.38-1.99-5.39-2.81-.26,.52-.53,1.04-.79,1.57Z" style="fill:url(#New_Gradient_Swatch_9-2); fill-rule:evenodd;"/></g><g><path d="M56.12,23.89c-.42,.12-.84,.25-1.26,.38,1.22,2.52,2.32,5,3.08,7.24,2.03,5.97-.15,11.19-3.68,8.62,5.74,4.17,7.22-3.02,5.19-8.99-.77-2.26-1.96-4.75-3.33-7.26Z" style="fill:url(#New_Gradient_Swatch_9-3); fill-rule:evenodd;"/><path d="M58.59,34.18c-.07-.5-.17-1.01-.31-1.54-5.08,.84-8.85,3.97-4.02,7.49-2.93-2.23-.37-5.14,4.32-5.96Z" style="fill:url(#New_Gradient_Swatch_9-4); fill-rule:evenodd;"/><path d="M56.12,23.89c1.27,2.55,2.16,5.09,2.93,7.35,1.63,4.81,1.24,10.17-1.91,10.14,3.31,.18,3.95-5.42,2.32-10.23-.77-2.26-1.96-4.75-3.33-7.26Z" style="fill:url(#New_Gradient_Swatch_4-2); fill-rule:evenodd;"/><path d="M52.96,38.98c-2.37-2.82,1.13-5.19,5.32-6.33-4.52,.75-8,3.31-5.32,6.33Z" style="fill:url(#New_Gradient_Swatch_4-3); fill-rule:evenodd;"/><path d="M58.22,23.32c-.7,.18-1.4,.37-2.1,.57,1.36,2.51,2.56,5,3.33,7.26,2.03,5.97,.55,13.16-5.19,8.99-4.84-3.51-1.06-6.65,4.02-7.49-.1-.41-.23-.8-.36-1.2-7.05,1.73-10.16,7.55-5.36,11.04,5.43,3.95,10.58-2.67,8.35-11.5-.6-2.39-1.55-5-2.69-7.67Z" style="fill:url(#New_Gradient_Swatch_9-5); fill-rule:evenodd;"/></g><g><path d="M36.67,31.45c2.5-7.28,8.45-16.96,10.62-22.53-2.78,5.34-9.67,14.94-12.15,22.23,.53,.08,1.04,.18,1.53,.3Z" style="fill:url(#New_Gradient_Swatch_9-6); fill-rule:evenodd;"/><path d="M53.29,21.11c.34-.13,.69-.27,1.04-.39-2.63-4.5-5.47-8.82-7.03-11.8,1.23,3.15,3.66,7.6,5.99,12.19Z" style="fill:url(#New_Gradient_Swatch_9-7); fill-rule:evenodd;"/><path d="M46.69,10.02c-3.07,5.49-9.23,14.31-11.55,21.12,3.05-6.69,9.06-15.55,11.55-21.12Z" style="fill:url(#New_Gradient_Swatch_4-4); fill-rule:evenodd;"/><path d="M54.32,20.71c-2.39-4.08-4.95-8.02-6.56-10.94,1.37,3.03,3.82,7.01,6.56,10.94Z" style="fill:url(#New_Gradient_Swatch_4-5); fill-rule:evenodd;"/><path d="M33.68,30.99c.5,.03,.99,.09,1.46,.16,2.48-7.29,9.37-16.89,12.15-22.23,1.56,2.98,4.39,7.3,7.03,11.8,.78-.29,1.58-.56,2.38-.83-3.55-7.68-7.98-15.43-9.4-19.89-2.14,6.7-11.05,20.82-13.61,30.99Z" style="fill:url(#New_Gradient_Swatch_9-8); fill-rule:evenodd;"/><path d="M34.96,28.85c3.71-9.13,8.22-15.75,12.33-23.62,2.61,5,5.89,9.32,8.52,14.27-2.73-5.74-6.22-11.74-8.52-17.6-3.6,9.17-9.26,17.26-12.33,26.95Z" style="fill:url(#New_Gradient_Swatch_3); fill-rule:evenodd;"/></g><g><path d="M47.29,32.89c-3.17,0-1.97-4.76,2.01-7.01,5.25-2.96,14.86-4.5,19.31-5.5-4.55,.76-14.3,1.18-20.27,4.63-3.96,2.28-6.88,7.88-1.05,7.88Z" style="fill:url(#New_Gradient_Swatch_9-9); fill-rule:evenodd;"/><path d="M47.29,27.44c2.27,2.37,2.55,5.45,0,5.45,4.75,0,3.69-3.72,.99-6.33-.36,.28-.69,.57-.99,.88Z" style="fill:url(#New_Gradient_Swatch_9-10); fill-rule:evenodd;"/><path d="M69.71,31.23c.27,.03,.55,.05,.82,.08-.54-4.29-1.54-8.37-1.92-10.93,.31,3.28,.85,7.1,1.1,10.85Z" style="fill:url(#New_Gradient_Swatch_9-11); fill-rule:evenodd;"/><path d="M44.35,31.86c-1.09-1.84,1.35-4.85,4.24-6.52,4.84-2.79,11.94-3.83,16.94-4.54-5.02,.61-12.34,1.41-17.19,4.21-2.9,1.67-5.24,5.12-4,6.85Z" style="fill:url(#New_Gradient_Swatch_4-6); fill-rule:evenodd;"/><path d="M49.42,32.51c2.15-1.01,1.04-3.84-1.14-5.95,1.76,2.11,2.99,4.77,1.14,5.95Z" style="fill:url(#New_Gradient_Swatch_4-7); fill-rule:evenodd;"/><path d="M70.3,31.29l.24,.02c-.51-3.99-1.4-7.81-1.83-10.39,.33,2.57,1.09,6.37,1.59,10.37Z" style="fill:url(#New_Gradient_Swatch_4-8); fill-rule:evenodd;"/><path d="M47.29,24.15c-4.65,3.23-6.61,11.38,0,11.38,5.6,0,5.05-5.86,1.92-9.61-.33,.19-.64,.4-.93,.62,2.7,2.61,3.77,6.33-.99,6.33-5.83,0-2.91-5.6,1.05-7.88,5.98-3.45,15.73-3.86,20.27-4.63,.38,2.56,1.37,6.65,1.92,10.93,.74,.08,1.48,.16,2.23,.25,.02-7.19-.88-14.54,.13-17.07-3.17,2.64-18.19,4.52-25.6,9.66Z" style="fill:url(#New_Gradient_Swatch_9-12); fill-rule:evenodd;"/><path d="M71.92,15.83c-5.39,2.6-13,3.67-19.02,6.12,6.22-1.88,13.15-2.67,17.64-4.22-.07,3.59,1.14,8.18,1.58,13.11-.02-4.55-.79-10.66-.2-15.01Z" style="fill:url(#New_Gradient_Swatch_3-2); fill-rule:evenodd;"/></g></g><g><g><path d="M20.64,48.06c1.08-1.45,2.22-2.77,3.43-3.86-.23-.36-.43-.73-.61-1.11-1.3,1.17-2.49,2.63-3.58,4.23,.25,.25,.5,.49,.76,.74Z" style="fill:url(#New_Gradient_Swatch_8); fill-rule:evenodd;"/><path d="M19.98,47.42c1.11-1.52,2.28-2.98,3.54-4.19-.02-.04-.04-.09-.06-.13-1.3,1.17-2.49,2.63-3.58,4.23l.1,.1Z" style="fill:url(#New_Gradient_Swatch_4-9); fill-rule:evenodd;"/><path d="M19.88,47.32c1.09-1.6,2.28-3.06,3.58-4.23-.19-.41-.36-.83-.49-1.26-1.48,1.13-2.93,2.6-4.33,4.26,.41,.41,.83,.82,1.24,1.23Z" style="fill:url(#New_Gradient_Swatch_8-2); fill-rule:evenodd;"/></g><g><path d="M25.45,33.35c-.01,.43-.02,.87-.03,1.32,2.77-.38,5.47-.66,7.84-.69,6.3-.09,10.59,3.6,7.07,6.16,5.74-4.17-.64-7.8-6.95-7.71-2.39,.03-5.12,.4-7.93,.92Z" style="fill:url(#New_Gradient_Swatch_8-3); fill-rule:evenodd;"/><path d="M36,34.19c-.5-.09-1.02-.15-1.56-.18-.77,5.09,1.04,9.65,5.88,6.13-3.02,2.09-5.01-1.24-4.33-5.95Z" style="fill:url(#New_Gradient_Swatch_8-4); fill-rule:evenodd;"/><path d="M25.45,33.35c2.82-.42,5.5-.48,7.89-.51,5.08-.07,10.06,1.96,9.05,4.95,1.2-3.09-3.93-5.43-9.01-5.36-2.39,.03-5.12,.4-7.93,.92Z" style="fill:url(#New_Gradient_Swatch_4-10); fill-rule:evenodd;"/><path d="M38.83,41.02c-3.41,1.38-4.59-2.68-4.38-7.02-.68,4.53,.67,8.63,4.38,7.02Z" style="fill:url(#New_Gradient_Swatch_4-11); fill-rule:evenodd;"/><path d="M25.55,31.17c-.04,.72-.08,1.45-.11,2.18,2.81-.52,5.54-.89,7.93-.92,6.3-.09,12.69,3.54,6.95,7.71-4.84,3.51-6.65-1.04-5.88-6.13-.42-.03-.83-.03-1.25-.03-.53,7.24,4.05,12,8.84,8.51,5.43-3.95,.73-10.88-8.35-11.5-2.46-.16-5.23-.07-8.13,.18Z" style="fill:url(#New_Gradient_Swatch_8-5); fill-rule:evenodd;"/></g><g><path d="M26.63,54.18c-6.15-4.62-13.52-13.28-18.15-17.07,4.22,4.3,11.22,13.82,17.39,18.43,.24-.48,.49-.93,.76-1.36Z" style="fill:url(#New_Gradient_Swatch_8-6); fill-rule:evenodd;"/><path d="M21.93,35.19c-.02-.37-.04-.74-.06-1.11-5.09,1.11-10.07,2.48-13.39,3.04,3.37-.19,8.36-1.13,13.45-1.93Z" style="fill:url(#New_Gradient_Swatch_8-7); fill-rule:evenodd;"/><path d="M9.35,38.03c4.27,4.62,10.76,13.2,16.52,17.51-5.42-4.96-11.99-13.42-16.52-17.51Z" style="fill:url(#New_Gradient_Swatch_4-12); fill-rule:evenodd;"/><path d="M21.87,34.08c-4.62,1.01-9.15,2.23-12.43,2.86,3.3-.36,7.85-1.47,12.43-2.86Z" style="fill:url(#New_Gradient_Swatch_4-13); fill-rule:evenodd;"/><path d="M25.27,56.89c.19-.47,.39-.91,.6-1.34-6.17-4.61-13.17-14.13-17.39-18.43,3.32-.56,8.3-1.92,13.39-3.04-.03-.83-.05-1.67-.05-2.52-8.4,1.01-17.14,2.82-21.82,2.8,5.71,4.11,16.39,16.95,25.27,22.53Z" style="fill:url(#New_Gradient_Swatch_8-8); fill-rule:evenodd;"/><path d="M23.63,55.01c-7.53-6.35-12.44-12.69-18.65-19.03,5.57-.94,10.68-2.72,16.21-3.69-6.3,.82-13.09,2.29-19.37,2.66,7.61,6.26,13.56,14.14,21.81,20.06Z" style="fill:url(#New_Gradient_Swatch_3-3); fill-rule:evenodd;"/></g><g><path d="M31.28,44.52c-.98,3.02-5.14,.4-6.04-4.08-1.19-5.9,.31-15.53,.74-20.06-.68,4.56-3.3,13.96-1.86,20.71,.95,4.47,5.37,8.98,7.17,3.44Z" style="fill:url(#New_Gradient_Swatch_8-9); fill-rule:evenodd;"/><path d="M26.1,42.84c2.96-1.43,5.97-.74,5.18,1.68,1.47-4.52-2.4-4.66-5.72-2.89,.15,.43,.33,.83,.54,1.21Z" style="fill:url(#New_Gradient_Swatch_8-10); fill-rule:evenodd;"/><path d="M36.63,22.69c.11-.25,.22-.5,.33-.76-4.25-.81-8.44-1.13-10.99-1.55,3.22,.72,7.01,1.38,10.66,2.31Z" style="fill:url(#New_Gradient_Swatch_8-11); fill-rule:evenodd;"/><path d="M29.39,47.01c-2.09,.47-4.19-2.78-4.89-6.05-1.16-5.47,.04-12.54,.92-17.51-.97,4.96-2.47,12.17-1.31,17.64,.7,3.28,3.25,6.57,5.28,5.92Z" style="fill:url(#New_Gradient_Swatch_4-14); fill-rule:evenodd;"/><path d="M31.58,42.38c-.3-2.36-3.34-2.18-6.01-.75,2.55-1.02,5.46-1.36,6.01,.75Z" style="fill:url(#New_Gradient_Swatch_4-15); fill-rule:evenodd;"/><path d="M36.87,22.15l.1-.22c-3.95-.75-7.87-1.08-10.45-1.47,2.55,.48,6.39,.93,10.35,1.69Z" style="fill:url(#New_Gradient_Swatch_4-16); fill-rule:evenodd;"/><path d="M22.97,41.83c1.63,5.41,8.79,9.8,10.83,3.52,1.73-5.32-4.01-6.61-8.54-4.79,.08,.37,.18,.73,.31,1.08,3.32-1.76,7.19-1.63,5.72,2.89-1.8,5.54-6.22,1.03-7.17-3.44-1.43-6.75,1.18-16.15,1.86-20.71,2.55,.43,6.75,.75,10.99,1.55,.3-.68,.61-1.36,.93-2.05-6.83-2.24-14.1-3.66-16.2-5.4,1.53,3.83-1.33,18.7,1.28,27.34Z" style="fill:url(#New_Gradient_Swatch_8-12); fill-rule:evenodd;"/><path d="M22.66,15.83c.81,5.93-.53,13.5-.05,19.98,.13-6.5,1.52-13.33,1.44-18.08,3.39,1.17,8.13,1.44,12.95,2.54-4.33-1.38-10.39-2.54-14.34-4.45Z" style="fill:url(#New_Gradient_Swatch_3-4); fill-rule:evenodd;"/></g></g><g><g><path d="M37.47,74.57c-1.04-1.48-1.94-2.97-2.61-4.45-.41,.1-.83,.18-1.25,.24,.71,1.6,1.73,3.18,2.92,4.71,.31-.16,.63-.33,.94-.49Z" style="fill:url(#New_Gradient_Swatch_6); fill-rule:evenodd;"/><path d="M36.65,74.99c-1.11-1.53-2.13-3.09-2.89-4.66-.05,0-.1,.01-.15,.02,.71,1.6,1.73,3.18,2.92,4.71l.12-.06Z" style="fill:url(#New_Gradient_Swatch_4-17); fill-rule:evenodd;"/><path d="M36.53,75.06c-1.18-1.53-2.21-3.11-2.92-4.71-.45,.06-.9,.08-1.35,.07,.61,1.76,1.57,3.59,2.71,5.44,.52-.27,1.04-.53,1.56-.8Z" style="fill:url(#New_Gradient_Swatch_6-2); fill-rule:evenodd;"/></g><g><path d="M24.97,65.45c.41,.15,.82,.29,1.24,.43,.49-2.75,1.06-5.4,1.77-7.67,1.86-6.02,6.7-8.96,8.04-4.82-2.19-6.75-7.62-1.8-9.48,4.23-.71,2.28-1.2,5-1.57,7.83Z" style="fill:url(#New_Gradient_Swatch_6-3); fill-rule:evenodd;"/><path d="M29.02,55.67c-.23,.45-.45,.92-.65,1.42,4.61,2.3,9.5,1.99,7.65-3.7,1.06,3.52-2.72,4.38-7,2.28Z" style="fill:url(#New_Gradient_Swatch_6-4); fill-rule:evenodd;"/><path d="M24.97,65.45c.47-2.81,1.25-5.38,1.95-7.66,1.5-4.85,4.98-8.96,7.51-7.08-2.57-2.1-6.38,2.06-7.89,6.91-.71,2.28-1.2,5-1.57,7.83Z" style="fill:url(#New_Gradient_Swatch_4-18); fill-rule:evenodd;"/><path d="M36.4,55.09c.26,3.67-3.97,3.54-8.03,2,4.1,2.05,8.42,2.03,8.03-2Z" style="fill:url(#New_Gradient_Swatch_4-19); fill-rule:evenodd;"/><path d="M22.93,64.67c.68,.27,1.35,.52,2.04,.77,.37-2.83,.87-5.55,1.57-7.83,1.87-6.02,7.29-10.97,9.48-4.23,1.85,5.69-3.04,6-7.65,3.7-.15,.39-.29,.78-.41,1.18,6.72,2.74,12.66-.14,10.83-5.78-2.07-6.38-10.13-4.06-13.52,4.39-.92,2.29-1.68,4.96-2.34,7.79Z" style="fill:url(#New_Gradient_Swatch_6-5); fill-rule:evenodd;"/></g><g><path d="M45.14,70.76c-6.3,4.42-16.81,8.75-21.84,11.99,5.39-2.68,16.61-6.41,22.9-10.84-.38-.38-.74-.76-1.06-1.14Z" style="fill:url(#New_Gradient_Swatch_6-6); fill-rule:evenodd;"/><path d="M25.62,69.36c-.36-.09-.71-.19-1.07-.29-.51,5.19-.76,10.35-1.25,13.68,.86-3.27,1.51-8.3,2.32-13.39Z" style="fill:url(#New_Gradient_Swatch_6-7); fill-rule:evenodd;"/><path d="M24.44,82.21c5.71-2.63,15.88-6.15,21.76-10.3-6.4,3.62-16.47,7.26-21.76,10.3Z" style="fill:url(#New_Gradient_Swatch_4-20); fill-rule:evenodd;"/><path d="M24.56,69.07c-.47,4.71-.71,9.39-1.12,12.71,.68-3.25,1.03-7.92,1.12-12.71Z" style="fill:url(#New_Gradient_Swatch_4-21); fill-rule:evenodd;"/><path d="M47.29,72.89c-.39-.32-.75-.65-1.09-.99-6.29,4.44-17.51,8.16-22.9,10.84,.5-3.33,.74-8.49,1.25-13.68-.8-.23-1.61-.47-2.41-.73-1.64,8.3-2.62,17.17-4.08,21.62,5.67-4.16,21.18-10.35,29.23-17.07Z" style="fill:url(#New_Gradient_Swatch_6-8); fill-rule:evenodd;"/><path d="M45,73.87c-8.37,5.2-15.91,7.91-23.86,11.86,.83-5.58,.71-11,1.5-16.55-1.17,6.25-1.87,13.16-3.45,19.24,8.31-5.31,17.64-8.52,25.82-14.55Z" style="fill:url(#New_Gradient_Swatch_3-5); fill-rule:evenodd;"/></g><g><path d="M37.4,63.35c2.56,1.86-1.21,5.01-5.75,4.49-5.98-.69-14.67-5.09-18.85-6.9,4.13,2.06,12.26,7.45,19.12,8.17,4.54,.48,10.2-2.33,5.48-5.76Z" style="fill:url(#New_Gradient_Swatch_6-9); fill-rule:evenodd;"/><path d="M34.19,67.76c-.44-3.25,1.14-5.91,3.2-4.41-3.85-2.79-5.17,.84-4.52,4.54,.46-.01,.9-.06,1.32-.13Z" style="fill:url(#New_Gradient_Swatch_6-10); fill-rule:evenodd;"/><path d="M18.29,51.51c-.21-.18-.41-.36-.62-.55-2.08,3.79-3.68,7.68-4.87,9.97,1.68-2.84,3.48-6.24,5.49-9.43Z" style="fill:url(#New_Gradient_Swatch_6-11); fill-rule:evenodd;"/><path d="M39.17,65.92c-.2,2.13-3.94,3.13-7.26,2.78-5.56-.59-11.91-3.92-16.37-6.29,4.42,2.46,10.82,6.11,16.38,6.7,3.33,.35,7.25-1.06,7.26-3.19Z" style="fill:url(#New_Gradient_Swatch_4-22); fill-rule:evenodd;"/><path d="M35.45,62.41c-2.34-.45-3.1,2.5-2.58,5.49-.18-2.74,.39-5.62,2.58-5.49Z" style="fill:url(#New_Gradient_Swatch_4-23); fill-rule:evenodd;"/><path d="M17.85,51.12l-.18-.16c-1.94,3.53-3.46,7.15-4.62,9.48,1.24-2.28,2.86-5.79,4.8-9.32Z" style="fill:url(#New_Gradient_Swatch_4-24); fill-rule:evenodd;"/><path d="M32.26,70.42c5.65,.12,12.04-5.33,6.69-9.21-4.53-3.29-7.52,1.77-7.2,6.64,.38,.04,.76,.05,1.12,.04-.65-3.7,.68-7.34,4.52-4.54,4.72,3.43-.94,6.24-5.48,5.76-6.86-.72-14.99-6.12-19.12-8.17,1.2-2.29,2.79-6.18,4.87-9.97-.55-.5-1.11-1-1.66-1.51-4.24,5.8-7.83,12.28-10.14,13.74,4.11-.27,17.37,7.04,26.39,7.23Z" style="fill:url(#New_Gradient_Swatch_6-12); fill-rule:evenodd;"/><path d="M7.44,62.68c5.88,1.06,12.67,4.68,18.99,6.22-6.14-2.14-12.21-5.57-16.75-6.95,2.16-2.86,3.88-7.29,6.42-11.53-2.65,3.7-5.63,9.09-8.66,12.26Z" style="fill:url(#New_Gradient_Swatch_3-6); fill-rule:evenodd;"/></g></g><g><g><path d="M67.88,66.75c-1.73,.54-3.42,.93-5.04,1.11-.03,.42-.08,.84-.16,1.26,1.74-.18,3.56-.67,5.38-1.32-.06-.35-.12-.7-.18-1.04Z" style="fill:url(#New_Gradient_Swatch_7); fill-rule:evenodd;"/><path d="M68.03,67.66c-1.8,.58-3.6,1.07-5.33,1.31,0,.05-.02,.1-.03,.15,1.74-.18,3.56-.67,5.38-1.32l-.02-.13Z" style="fill:url(#New_Gradient_Swatch_4-25); fill-rule:evenodd;"/><path d="M68.06,67.79c-1.82,.65-3.64,1.14-5.38,1.32-.08,.45-.2,.89-.35,1.31,1.86-.04,3.9-.38,6.01-.9-.09-.58-.19-1.15-.28-1.73Z" style="fill:url(#New_Gradient_Swatch_7-2); fill-rule:evenodd;"/></g><g><path d="M55.34,75.82c.27-.34,.53-.69,.8-1.05-2.46-1.32-4.81-2.68-6.75-4.05-5.15-3.63-6.45-9.14-2.09-9.14-7.09,0-4.06,6.69,1.09,10.32,1.95,1.38,4.38,2.69,6.96,3.91Z" style="fill:url(#New_Gradient_Swatch_7-3); fill-rule:evenodd;"/><path d="M47.3,68.94c.35,.36,.74,.72,1.15,1.06,3.61-3.67,4.83-8.42-1.15-8.42,3.68,.08,3.32,3.94,0,7.36Z" style="fill:url(#New_Gradient_Swatch_7-4); fill-rule:evenodd;"/><path d="M55.34,75.82c-2.53-1.31-4.73-2.85-6.69-4.22-4.15-2.93-6.99-7.5-4.41-9.33-2.79,1.8-.01,6.71,4.14,9.64,1.95,1.38,4.38,2.69,6.96,3.91Z" style="fill:url(#New_Gradient_Swatch_4-26); fill-rule:evenodd;"/><path d="M49.03,61.75c3.57,.89,2.14,4.87-.58,8.25,3.21-3.26,4.53-7.38,.58-8.25Z" style="fill:url(#New_Gradient_Swatch_4-27); fill-rule:evenodd;"/><path d="M53.98,77.52c.46-.56,.92-1.12,1.36-1.7-2.58-1.23-5.01-2.54-6.96-3.91-5.15-3.63-8.18-10.32-1.09-10.32,5.98,0,4.77,4.75,1.15,8.42,.32,.27,.66,.52,1,.76,4.69-5.55,3.78-12.08-2.15-12.08-6.71,0-6.99,8.38,0,14.21,1.89,1.58,4.19,3.13,6.68,4.63Z" style="fill:url(#New_Gradient_Swatch_7-5); fill-rule:evenodd;"/></g><g><path d="M66.63,58.27c2.26,7.36,3.13,18.69,4.65,24.48-.89-5.96-.96-17.78-3.24-25.13-.47,.25-.95,.47-1.42,.66Z" style="fill:url(#New_Gradient_Swatch_7-6); fill-rule:evenodd;"/><path d="M59.27,76.41c-.2,.31-.4,.62-.61,.93,4.77,2.09,9.61,3.92,12.62,5.42-2.84-1.83-7.43-4-12.01-6.34Z" style="fill:url(#New_Gradient_Swatch_7-7); fill-rule:evenodd;"/><path d="M71.12,81.5c-.74-6.24-.94-17.01-3.07-23.88,1.47,7.2,1.81,17.9,3.07,23.88Z" style="fill:url(#New_Gradient_Swatch_4-28); fill-rule:evenodd;"/><path d="M58.67,77.33c4.33,1.9,8.71,3.58,11.74,4.99-2.89-1.65-7.21-3.42-11.74-4.99Z" style="fill:url(#New_Gradient_Swatch_4-29); fill-rule:evenodd;"/><path d="M69.32,56.89c-.43,.27-.85,.51-1.27,.73,2.28,7.36,2.35,19.17,3.24,25.13-3.01-1.5-7.84-3.32-12.62-5.42-.46,.69-.94,1.38-1.44,2.07,7.39,4.12,15.52,7.79,19.3,10.56-2.2-6.68-3.3-23.34-7.2-33.07Z" style="fill:url(#New_Gradient_Swatch_7-8); fill-rule:evenodd;"/><path d="M69.54,59.37c2.36,9.57,2.6,17.57,3.91,26.36-5.05-2.51-10.24-4.08-15.28-6.54,5.58,3.04,11.94,5.84,17.23,9.23-2.48-9.54-2.65-19.41-5.86-29.05Z" style="fill:url(#New_Gradient_Swatch_3-7); fill-rule:evenodd;"/></g><g><path d="M57.19,63.35c2.57-1.86,4.39,2.7,2.49,6.86-2.5,5.48-9.38,12.38-12.39,15.8,3.23-3.29,10.87-9.35,13.68-15.66,1.86-4.17,.94-10.42-3.78-7Z" style="fill:url(#New_Gradient_Swatch_7-9); fill-rule:evenodd;"/><path d="M60.4,67.76c-3.23-.58-5.26-2.91-3.2-4.41-3.84,2.79-.8,5.18,2.92,5.7,.13-.44,.22-.87,.28-1.3Z" style="fill:url(#New_Gradient_Swatch_7-10); fill-rule:evenodd;"/><path d="M40.03,77.87c-.24,.14-.47,.28-.71,.42,2.96,3.15,6.17,5.87,7.98,7.72-2.18-2.47-4.86-5.24-7.27-8.14Z" style="fill:url(#New_Gradient_Swatch_7-11); fill-rule:evenodd;"/><path d="M60.18,62.46c1.96,.85,1.76,4.71,.4,7.77-2.28,5.11-7.41,10.12-11.04,13.63,3.7-3.44,9.15-8.4,11.43-13.5,1.36-3.06,1.23-7.23-.79-7.89Z" style="fill:url(#New_Gradient_Swatch_4-30); fill-rule:evenodd;"/><path d="M55.69,64.91c-1.15,2.08,1.42,3.72,4.42,4.15-2.66-.67-5.22-2.11-4.42-4.15Z" style="fill:url(#New_Gradient_Swatch_4-31); fill-rule:evenodd;"/><path d="M39.52,78.17l-.21,.12c2.76,2.93,5.73,5.5,7.59,7.33-1.78-1.88-4.62-4.51-7.38-7.45Z" style="fill:url(#New_Gradient_Swatch_4-32); fill-rule:evenodd;"/><path d="M62.33,70.42c1.86-5.34-1.35-13.09-6.69-9.21-4.53,3.29-.64,7.7,4.09,8.9,.15-.35,.28-.7,.39-1.05-3.72-.53-6.77-2.91-2.92-5.7,4.72-3.43,5.64,2.82,3.78,7-2.81,6.3-10.45,12.37-13.68,15.66-1.81-1.85-5.02-4.57-7.98-7.72-.64,.37-1.29,.75-1.95,1.11,4.21,5.83,9.26,11.25,9.93,13.89,1.01-4,12.06-14.35,15.03-22.87Z" style="fill:url(#New_Gradient_Swatch_7-12); fill-rule:evenodd;"/><path d="M47.29,91.63c2.83-5.27,8.37-10.61,11.79-16.13-3.93,5.18-9.07,9.89-11.79,13.78-2.05-2.94-5.73-5.94-8.98-9.67,2.69,3.67,6.91,8.16,8.98,12.03Z" style="fill:url(#New_Gradient_Swatch_3-8); fill-rule:evenodd;"/></g></g><g><g><path d="M69.84,35.41c-.02,1.81-.17,3.54-.51,5.14,.39,.16,.78,.34,1.15,.54,.36-1.71,.47-3.59,.41-5.53-.35-.05-.7-.1-1.05-.16Z" style="fill:url(#New_Gradient_Swatch_10); fill-rule:evenodd;"/><path d="M70.75,35.54c0,1.89-.09,3.76-.4,5.47,.04,.02,.09,.05,.13,.07,.36-1.71,.47-3.59,.41-5.53l-.14-.02Z" style="fill:url(#New_Gradient_Swatch_4-33); fill-rule:evenodd;"/><path d="M70.89,35.56c.06,1.93-.04,3.81-.41,5.53,.4,.22,.78,.46,1.14,.74,.54-1.78,.84-3.83,1-5.99-.58-.09-1.15-.18-1.73-.27Z" style="fill:url(#New_Gradient_Swatch_10-2); fill-rule:evenodd;"/></g><g><path d="M74.59,50.14c-.24-.36-.49-.72-.75-1.08-2.02,1.93-4.04,3.75-5.94,5.17-5.05,3.78-10.69,3.31-9.34-.83-2.19,6.75,5.1,5.93,10.15,2.15,1.91-1.43,3.91-3.34,5.87-5.41Z" style="fill:url(#New_Gradient_Swatch_10-3); fill-rule:evenodd;"/><path d="M65.57,55.66c.45-.22,.91-.48,1.36-.77-2.37-4.57-6.52-7.19-8.36-1.51,1.21-3.47,4.78-1.94,7,2.27Z" style="fill:url(#New_Gradient_Swatch_10-4); fill-rule:evenodd;"/><path d="M74.59,50.14c-2.03,2-4.17,3.62-6.08,5.05-4.07,3.04-9.29,4.33-10.23,1.31,.85,3.21,6.38,2.08,10.44-.96,1.91-1.43,3.91-3.34,5.87-5.41Z" style="fill:url(#New_Gradient_Swatch_4-34); fill-rule:evenodd;"/><path d="M59.26,51.8c1.95-3.13,5.29-.53,7.67,3.1-2.11-4.06-5.62-6.59-7.67-3.1Z" style="fill:url(#New_Gradient_Swatch_4-35); fill-rule:evenodd;"/><path d="M75.79,51.96c-.39-.61-.79-1.22-1.19-1.82-1.97,2.07-3.96,3.98-5.87,5.41-5.05,3.78-12.35,4.59-10.15-2.15,1.85-5.69,5.99-3.07,8.36,1.51,.36-.23,.69-.46,1.03-.72-3.83-6.17-10.32-7.33-12.16-1.69-2.08,6.38,5.81,9.24,13.52,4.39,2.09-1.31,4.27-3.02,6.47-4.93Z" style="fill:url(#New_Gradient_Swatch_10-5); fill-rule:evenodd;"/></g><g><path d="M61.4,33.98c7.7,.12,18.74,2.8,24.71,3.14-5.94-1-17.2-4.58-24.9-4.69,.09,.53,.15,1.04,.19,1.55Z" style="fill:url(#New_Gradient_Swatch_10-6); fill-rule:evenodd;"/><path d="M76.37,46.58c.23,.28,.46,.57,.69,.86,3.47-3.89,6.69-7.93,9.05-10.33-2.62,2.14-6.1,5.83-9.75,9.47Z" style="fill:url(#New_Gradient_Swatch_10-7); fill-rule:evenodd;"/><path d="M84.87,36.89c-6.17-1.23-16.47-4.36-23.66-4.46,7.3,.83,17.59,3.81,23.66,4.46Z" style="fill:url(#New_Gradient_Swatch_4-36); fill-rule:evenodd;"/><path d="M77.06,47.45c3.15-3.53,6.1-7.18,8.37-9.62-2.46,2.24-5.48,5.8-8.37,9.62Z" style="fill:url(#New_Gradient_Swatch_4-37); fill-rule:evenodd;"/><path d="M60.91,30.99c.12,.49,.22,.97,.3,1.44,7.7,.11,18.96,3.69,24.9,4.69-2.36,2.4-5.58,6.43-9.05,10.33,.52,.65,1.02,1.33,1.52,2.01,6.21-5.75,12.21-12.36,16.01-15.09-7.03,.03-23.22-4.08-33.68-3.37Z" style="fill:url(#New_Gradient_Swatch_10-8); fill-rule:evenodd;"/><path d="M63.34,31.55c9.83,.71,17.52,2.95,26.28,4.43-3.95,4.03-7.04,8.48-10.94,12.51,4.62-4.37,9.25-9.55,14.1-13.54-9.84-.59-19.28-3.48-29.44-3.4Z" style="fill:url(#New_Gradient_Swatch_3-9); fill-rule:evenodd;"/></g><g><path d="M63.31,44.53c-.98-3.02,3.92-3.34,7.29-.25,4.44,4.08,8.87,12.75,11.19,16.67-2.13-4.09-5.54-13.23-10.66-17.85-3.4-3.06-9.62-4.11-7.82,1.44Z" style="fill:url(#New_Gradient_Swatch_10-9); fill-rule:evenodd;"/><path d="M68.49,42.84c-1.55,2.89-4.39,4.11-5.18,1.68,1.47,4.52,4.68,2.36,6.33-1.02-.38-.26-.76-.48-1.15-.67Z" style="fill:url(#New_Gradient_Swatch_10-10); fill-rule:evenodd;"/><path d="M71.81,65.34c.06,.27,.12,.54,.18,.81,3.91-1.84,7.49-4.05,9.81-5.2-3.03,1.31-6.49,3-9.98,4.4Z" style="fill:url(#New_Gradient_Swatch_10-11); fill-rule:evenodd;"/><path d="M63.38,41.4c1.41-1.61,5.02-.22,7.51,2.02,4.16,3.74,7.33,10.17,9.55,14.71-2.13-4.59-5.16-11.3-9.31-15.04-2.49-2.24-6.49-3.4-7.75-1.69Z" style="fill:url(#New_Gradient_Swatch_4-38); fill-rule:evenodd;"/><path d="M64.33,46.43c1.63,1.73,3.98-.2,5.31-2.93-1.46,2.32-3.62,4.31-5.31,2.93Z" style="fill:url(#New_Gradient_Swatch_4-39); fill-rule:evenodd;"/><path d="M71.94,65.91l.05,.23c3.64-1.72,7-3.75,9.31-4.95-2.34,1.11-5.72,3-9.37,4.72Z" style="fill:url(#New_Gradient_Swatch_4-40); fill-rule:evenodd;"/><path d="M71.62,41.83c-4.5-3.42-12.87-2.77-10.83,3.52,1.73,5.32,7.13,2.99,9.73-1.14-.29-.26-.58-.49-.88-.7-1.65,3.38-4.86,5.54-6.33,1.02-1.8-5.55,4.43-4.49,7.82-1.44,5.13,4.62,8.53,13.76,10.66,17.85-2.32,1.15-5.9,3.36-9.81,5.2,.16,.73,.31,1.46,.45,2.2,6.84-2.2,13.56-5.33,16.28-5.16-3.49-2.2-9.92-15.91-17.1-21.36Z" style="fill:url(#New_Gradient_Swatch_10-12); fill-rule:evenodd;"/><path d="M87.15,62.68c-4.14-4.32-7.5-11.23-11.7-16.2,3.71,5.34,6.6,11.68,9.46,15.47-3.43,1.04-7.42,3.61-11.98,5.56,4.32-1.43,9.9-4.05,14.21-4.83Z" style="fill:url(#New_Gradient_Swatch_3-10); fill-rule:evenodd;"/></g></g></g></g></svg>